# 3ds Max Wavefront OBJ Exporter v0.97b - (c)2007 guruware
# File Created: 24.02.2013 00:52:42

mtllib decal_ceiling_minor.mtl

#
# object Decal3SmallCrack
#

v  -23.0611 25.5658 38.1549
v  -19.6548 25.5658 -2.6764
v  -17.2897 25.5658 -2.4791
v  -20.6960 25.5658 38.3522
# 4 vertices

vn 0.0000 -1.0000 -0.0000
# 1 vertex normals

vt -0.0000 0.0000 0.0000
vt 1.0000 0.0000 0.0000
vt 1.0000 1.0000 0.0000
vt 0.0000 1.0000 0.0000
# 4 texture coords

g Decal3SmallCrack
usemtl decal_small_crack
f 1/1/1 2/2/1 3/3/1 
f 3/3/1 4/4/1 1/1/1 
# 2 faces

