# 3ds Max Wavefront OBJ Exporter v0.97b - (c)2007 guruware
# File Created: 24.02.2013 00:52:13

mtllib decal_ceiling_major.mtl

#
# object Decal4SmallCrack
#

v  14.2014 25.5658 11.5975
v  17.0646 25.5658 -29.2755
v  19.3990 25.5658 -29.1120
v  16.5358 25.5658 11.7610
# 4 vertices

vn 0.0000 -1.0000 -0.0000
# 1 vertex normals

vt 1.0000 1.0000 0.0000
vt 0.0000 1.0000 0.0000
vt 0.0000 -0.0000 0.0000
vt 1.0000 0.0000 0.0000
# 4 texture coords

g Decal4SmallCrack
usemtl decal_small_crack
f 1/1/1 2/2/1 3/3/1 
f 3/3/1 4/4/1 1/1/1 
# 2 faces

#
# object Decal4BigCrack
#

v  -25.3415 25.5658 37.9235
v  -22.1085 25.5658 -2.9219
v  -9.4024 25.5658 -1.9162
v  -12.6355 25.5658 38.9292
# 4 vertices

vn 0.0000 -1.0000 -0.0000
# 1 vertex normals

vt 1.0000 1.0000 0.0000
vt 0.0000 1.0000 0.0000
vt 0.0000 -0.0000 0.0000
vt 1.0000 0.0000 0.0000
# 4 texture coords

g Decal4BigCrack
usemtl decal_big_crack
f 5/5/2 6/6/2 7/7/2 
f 7/7/2 8/8/2 5/5/2 
# 2 faces

