# 3ds Max Wavefront OBJ Exporter v0.97b - (c)2007 guruware
# File Created: 24.02.2013 17:48:56

mtllib decal_puzzle_flood.mtl

#
# object decal_puzzle_flood
#

v  -12.4053 0.0385 -46.7360
v  -17.1836 0.0385 -34.3249
v  -4.4222 0.0385 -29.4117
v  0.3561 0.0385 -41.8228
# 4 vertices

vn 0.0000 1.0000 -0.0000
# 1 vertex normals

vt 0.0000 0.0000 0.0000
vt 1.0000 0.0000 0.0000
vt 1.0000 1.0000 0.0000
vt 0.0000 1.0000 0.0000
# 4 texture coords

g decal_puzzle_flood
usemtl decal_puzzle_flood
f 1/1/1 2/2/1 3/3/1 
f 3/3/1 4/4/1 1/1/1 
# 2 faces

