# 3ds Max Wavefront OBJ Exporter v0.97b - (c)2007 guruware
# File Created: 23.01.2013 04:04:57

mtllib decal_board.mtl

#
# object Decal2BoardSouth
#

v  -29.5105 2.6489 37.3764
v  -29.5105 10.7312 37.3764
v  29.5105 10.7312 37.3764
v  29.5105 2.6489 37.3764
# 4 vertices

vn 0.0000 0.0000 -1.0000
# 1 vertex normals

vt 0.0000 0.0000 0.0000
vt 0.0000 1.0000 0.0000
vt 2.0000 1.0000 0.0000
vt 2.0000 0.0000 0.0000
# 4 texture coords

g Decal2BoardSouth
usemtl decal_boardXday
f 1/1/1 2/2/1 3/3/1 
f 3/3/1 4/4/1 1/1/1 
# 2 faces

#
# object Decal2BoardEast
#

v  28.5729 2.6489 38.3837
v  28.5729 10.7312 38.3837
v  28.5729 10.7312 -29.5030
v  28.5729 2.6489 -29.5030
# 4 vertices

vn -1.0000 0.0000 -0.0000
# 1 vertex normals

vt 0.0000 0.0000 0.0000
vt 0.0000 1.0000 0.0000
vt 2.3330 1.0000 0.0000
vt 2.3330 0.0000 0.0000
# 4 texture coords

g Decal2BoardEast
usemtl decal_boardXday
f 5/5/2 6/6/2 7/7/2 
f 7/7/2 8/8/2 5/5/2 
# 2 faces

#
# object Decal2BoardNorth
#

v  -24.8460 7.2398 -28.5754
v  -29.5105 10.7312 -28.5754
v  -29.5105 2.6489 -28.5754
v  -24.8482 2.6489 -28.5754
v  -16.0526 7.2406 -28.5754
v  29.5105 10.7312 -28.5754
v  -16.0526 10.7312 -28.5754
v  29.5105 2.6489 -28.5754
v  -16.0526 2.6489 -28.5754
v  -24.8437 10.7312 -28.5754
# 10 vertices

vn 0.0000 0.0000 1.0000
# 1 vertex normals

vt 1.8420 0.5680 0.0000
vt 2.0000 1.0000 0.0000
vt 2.0000 0.0000 0.0000
vt 1.8420 0.0000 0.0000
vt 1.5440 0.5681 0.0000
vt 0.0000 1.0000 0.0000
vt 1.5440 1.0000 0.0000
vt 0.0000 0.0000 0.0000
vt 1.5440 0.0000 0.0000
vt 1.8419 1.0000 0.0000
# 10 texture coords

g Decal2BoardNorth
usemtl decal_boardXday
f 9/9/3 10/10/3 11/11/3 
f 11/11/3 12/12/3 9/9/3 
f 13/13/3 14/14/3 15/15/3 
f 16/16/3 14/14/3 13/13/3 
f 13/13/3 17/17/3 16/16/3 
f 18/18/3 10/10/3 9/9/3 
# 6 faces

#
# object Decal2BoardWest
#

v  -28.3067 7.2465 7.0808
v  -28.3067 10.7312 38.3837
v  -28.3067 2.6489 38.3837
v  -28.3067 2.6489 7.0808
v  -28.3067 7.2465 7.0287
v  -28.3067 10.7312 7.0287
v  -28.3067 7.2465 -17.0366
v  -28.3067 2.6489 -17.0391
v  -28.3067 2.6489 -29.5030
v  -28.3067 10.7312 -29.5030
v  -28.3067 10.7312 -17.0342
# 11 vertices

vn 1.0000 0.0000 -0.0000
# 1 vertex normals

vt 2.7760 0.5689 0.0000
vt 3.8518 1.0000 0.0000
vt 3.8518 0.0000 0.0000
vt 2.7760 0.0000 0.0000
vt 2.7742 0.5689 0.0000
vt 2.7742 1.0000 0.0000
vt 1.9473 0.5689 0.0000
vt 1.9471 0.0000 0.0000
vt 1.5188 0.0000 0.0000
vt 1.5188 1.0000 0.0000
vt 1.9473 1.0000 0.0000
# 11 texture coords

g Decal2BoardWest
usemtl decal_boardXday
f 19/19/4 20/20/4 21/21/4 
f 21/21/4 22/22/4 19/19/4 
f 19/19/4 23/23/4 24/24/4 
f 24/24/4 20/20/4 19/19/4 
f 25/25/4 26/26/4 27/27/4 
f 27/27/4 28/28/4 25/25/4 
f 25/25/4 28/28/4 29/29/4 
# 7 faces

#
# object Decal2BoardClosetWest
#

v  -41.3396 10.7302 9.2059
v  -41.3396 2.5457 9.2059
v  -41.3396 2.5457 -18.8913
v  -41.3396 10.7302 -18.8913
# 4 vertices

vn 1.0000 0.0000 -0.0000
# 1 vertex normals

vt 6.2417 1.0000 0.0000
vt 6.2417 0.0000 0.0000
vt 5.2761 0.0000 0.0000
vt 5.2761 1.0000 0.0000
# 4 texture coords

g Decal2BoardClosetWest
usemtl decal_boardXday
f 30/30/5 31/31/5 32/32/5 
f 32/32/5 33/33/5 30/30/5 
# 2 faces

#
# object Decal2BoardClosetNorth
#

v  -41.5716 10.7302 -18.4710
v  -41.5716 2.5457 -18.4710
v  -30.6487 2.5457 -18.4710
v  -30.6487 10.7302 -18.4710
v  -30.6487 7.3477 -18.4710
# 5 vertices

vn 0.0000 0.0000 1.0000
vn -0.0000 -0.0000 -1.0000
# 2 vertex normals

vt 1.3918 1.0000 0.0000
vt 1.3918 0.0000 0.0000
vt 1.0217 0.0000 0.0000
vt 1.0217 1.0000 0.0000
vt 1.0217 0.5867 0.0000
# 5 texture coords

g Decal2BoardClosetNorth
usemtl decal_boardXday
f 34/34/6 35/35/6 36/36/6 
f 37/37/6 34/34/6 36/36/6 
f 38/38/7 37/37/6 36/36/6 
# 3 faces

#
# object Decal2BoardClosetSouth
#

v  -30.6491 2.5457 8.4998
v  -41.5721 2.5457 8.4998
v  -41.5721 10.7302 8.4998
v  -30.6491 10.7302 8.4998
v  -30.6491 7.6624 8.4998
v  -30.6491 7.4001 8.4998
# 6 vertices

vn 0.0000 0.0000 -1.0000
vn 1.0000 0.0000 -0.0000
# 2 vertex normals

vt 0.8009 0.0000 0.0000
vt 0.4308 0.0000 0.0000
vt 0.4308 1.0000 0.0000
vt 0.8009 1.0000 0.0000
vt 0.8009 0.6252 0.0000
vt 0.8009 0.5931 0.0000
# 6 texture coords

g Decal2BoardClosetSouth
usemtl decal_boardXday
f 39/39/8 40/40/8 41/41/8 
f 41/41/8 42/42/8 43/43/8 
f 39/39/8 41/41/8 43/43/8 
f 44/44/9 39/39/8 43/43/8 
# 4 faces

