# 3ds Max Wavefront OBJ Exporter v0.97b - (c)2007 guruware
# File Created: 29.01.2013 21:25:19

mtllib collision_stage1.mtl

#
# object Collision1WallEast001
#

v  25.1183 0.0207 -31.0830
v  25.1183 0.0207 39.9751
v  25.1183 25.6082 39.9751
v  25.1183 25.6082 -31.0830
# 4 vertices

vn -1.0000 -0.0000 -0.0000
# 1 vertex normals

vt 3.5000 0.0000 0.0000
vt 0.0000 0.0000 0.0000
vt 0.0000 1.9800 0.0000
vt 3.5000 1.9800 0.0000
# 4 texture coords

g Collision1WallEast001
usemtl wall_plaster
f 1/1/1 2/2/1 3/3/1 
f 3/3/1 4/4/1 1/1/1 
# 2 faces

#
# object Collision1WallSouth001
#

v  -30.0000 0.0207 34.2457
v  -30.0000 25.6082 34.2457
v  30.0000 25.6082 34.2457
v  30.0000 0.0207 34.2457
# 4 vertices

vn 0.0000 0.0000 -1.0000
# 1 vertex normals

vt 0.0000 0.0000 0.0000
vt 0.0000 2.0000 0.0000
vt 3.0000 2.0000 0.0000
vt 3.0000 0.0000 0.0000
# 4 texture coords

g Collision1WallSouth001
usemtl wall_plaster
f 5/5/2 6/6/2 7/7/2 
f 7/7/2 8/8/2 5/5/2 
# 2 faces

#
# object Collision1WallWest001
#

v  -25.4500 20.0069 5.6479
v  -25.4500 25.6082 40.0223
v  -25.4500 0.0207 40.0223
v  -25.4500 0.0207 5.6479
v  -25.4500 20.0069 -15.5984
v  -25.4500 21.7686 -30.5455
v  -25.4500 25.6082 -30.5455
v  -25.4499 0.0207 -15.5984
v  -25.4499 0.0207 -30.5455
# 9 vertices

vn 1.0000 0.0000 0.0000
vn 1.0000 -0.0000 0.0000
vn 1.0000 0.0000 -0.0000
# 3 vertex normals

vt 2.3461 1.5622 0.0000
vt 3.5000 2.0000 0.0000
vt 3.5000 0.0000 0.0000
vt 2.3461 0.0000 0.0000
vt 1.5019 1.5622 0.0000
vt 1.0295 1.6999 0.0000
vt 1.0295 2.0000 0.0000
vt 1.5019 0.0000 0.0000
vt 1.0295 0.0000 0.0000
# 9 texture coords

g Collision1WallWest001
usemtl wall_plaster
f 9/9/3 10/10/3 11/11/4 
f 11/11/4 12/12/4 9/9/3 
f 13/13/5 14/14/5 15/15/5 
f 13/13/5 15/15/5 10/10/3 
f 13/13/5 10/10/3 9/9/3 
f 14/14/5 13/13/5 16/16/5 
f 16/16/5 17/17/5 14/14/5 
# 7 faces

#
# object Collision1WallClosetSouth001
#

v  -25.4500 25.6082 5.6476
v  -25.4500 0.0207 5.6476
v  -43.7657 0.0207 5.6476
v  -43.7657 25.6082 5.6476
# 4 vertices

vn -0.0000 0.0000 -1.0000
# 1 vertex normals

vt 0.5000 2.0000 0.0000
vt 0.5000 0.0000 0.0000
vt 0.0000 0.0000 0.0000
vt 0.0000 2.0000 0.0000
# 4 texture coords

g Collision1WallClosetSouth001
usemtl wall_plaster
f 18/18/6 19/19/6 20/20/6 
f 20/20/6 21/21/6 18/18/6 
# 2 faces

#
# object Collision1WallClosetWest001
#

v  -39.1122 0.0207 -19.9424
v  -39.1122 25.6082 -19.9424
v  -39.1122 25.6082 9.6317
v  -39.1122 0.0207 9.6317
# 4 vertices

vn 1.0000 0.0000 0.0000
# 1 vertex normals

vt 0.0000 0.0000 0.0000
vt 0.0000 2.0200 0.0000
vt 1.5000 2.0200 0.0000
vt 1.5000 0.0000 0.0000
# 4 texture coords

g Collision1WallClosetWest001
usemtl wall_plaster
f 22/22/7 23/23/7 24/24/7 
f 24/24/7 25/25/7 22/22/7 
# 2 faces

#
# object Collision1WallClosetNorth001
#

v  -25.4500 25.6082 -15.5982
v  -43.7657 25.6082 -15.5982
v  -43.7657 0.0207 -15.5982
v  -25.4500 0.0207 -15.5982
# 4 vertices

vn 0.0000 -0.0000 1.0000
# 1 vertex normals

vt 0.0000 3.0000 0.0000
vt 0.5000 3.0000 0.0000
vt 0.5000 1.0000 0.0000
vt 0.0000 1.0000 0.0000
# 4 texture coords

g Collision1WallClosetNorth001
usemtl wall_plaster
f 26/26/8 27/27/8 28/28/8 
f 28/28/8 29/29/8 26/26/8 
# 2 faces

#
# object Collision1WallNorth
#

v  30.0000 0.0207 -25.3670
v  30.0000 25.6082 -25.3670
v  -30.0000 25.6082 -25.3670
v  -30.0000 0.0207 -25.3670
# 4 vertices

vn 0.0000 0.0000 1.0000
# 1 vertex normals

vt 0.0000 0.0000 0.0000
vt 0.0000 2.0000 0.0000
vt 3.0000 2.0000 0.0000
vt 3.0000 0.0000 0.0000
# 4 texture coords

g Collision1WallNorth
usemtl wall_plaster
f 30/30/9 31/31/9 32/32/9 
f 32/32/9 33/33/9 30/30/9 
# 2 faces

