# 3ds Max Wavefront OBJ Exporter v0.97b - (c)2007 guruware
# File Created: 26.01.2013 11:35:14

mtllib collision_1.mtl

#
# object Collision1BoardSouth
#

v  -29.8658 20.5780 37.4528
v  29.3204 20.5780 37.4528
v  29.3204 0.0097 37.4528
v  -29.8658 0.0097 37.4528
# 4 vertices

vn 0.0000 0.0000 -1.0000
# 1 vertex normals

vt 3.0000 1.0000 0.0000
vt 0.0000 1.0000 0.0000
vt 0.0000 0.0000 0.0000
vt 3.0000 0.0000 0.0000
# 4 texture coords

g Collision1BoardSouth
usemtl wall_board
f 1/1/1 2/2/1 3/3/1 
f 3/3/1 4/4/1 1/1/1 
# 2 faces

#
# object Collision1BoardEast
#

v  28.6171 20.5780 37.8444
v  28.6171 20.5780 -30.2107
v  28.6171 0.0097 -30.2107
v  28.6171 0.0097 37.8444
# 4 vertices

vn -1.0000 0.0000 0.0000
# 1 vertex normals

vt 3.5000 1.0000 0.0000
vt 0.0000 1.0000 0.0000
vt 0.0000 0.0000 0.0000
vt 3.5000 0.0000 0.0000
# 4 texture coords

g Collision1BoardEast
usemtl wall_board
f 5/5/2 6/6/2 7/7/2 
f 7/7/2 8/8/2 5/5/2 
# 2 faces

#
# object Collision1BoardEast001
#

v  -28.4077 0.0097 7.0615
v  -28.4077 20.5780 7.0615
v  -28.4077 20.5780 37.8444
v  -28.4077 0.0097 37.8444
v  -28.4077 0.0097 -30.2107
v  -28.4077 20.5780 -30.2107
v  -28.4077 20.5780 -17.0562
v  -28.4077 0.0097 -17.0562
# 8 vertices

vn 1.0000 0.0000 -0.0000
# 1 vertex normals

vt 1.5831 0.0000 0.0000
vt 1.5831 1.0000 0.0000
vt 0.0000 1.0000 0.0000
vt 0.0000 0.0000 0.0000
vt 3.5000 0.0000 0.0000
vt 3.5000 1.0000 0.0000
vt 2.8235 1.0000 0.0000
vt 2.8235 0.0000 0.0000
# 8 texture coords

g Collision1BoardEast001
usemtl wall_board
f 9/9/3 10/10/3 11/11/3 
f 11/11/3 12/12/3 9/9/3 
f 13/13/3 14/14/3 15/15/3 
f 15/15/3 16/16/3 13/13/3 
# 4 faces

#
# object Collision1BoardClosetWest
#

v  -41.3531 0.0097 9.3282
v  -41.3531 0.0097 -19.2009
v  -41.3531 20.5780 -19.2009
v  -41.3531 20.5780 9.3282
# 4 vertices

vn 1.0000 0.0000 -0.0000
# 1 vertex normals

vt 0.0000 0.0000 0.0000
vt 1.5000 0.0000 0.0000
vt 1.5000 1.0000 0.0000
vt 0.0000 1.0000 0.0000
# 4 texture coords

g Collision1BoardClosetWest
usemtl wall_board
f 17/17/4 18/18/4 19/19/4 
f 19/19/4 20/20/4 17/17/4 
# 2 faces

#
# object Collision1BoardClosetSouth
#

v  -41.9821 20.5780 7.0607
v  -28.4111 20.5780 7.0607
v  -28.4111 0.0097 7.0607
v  -41.9821 0.0097 7.0607
# 4 vertices

vn 0.0000 0.0000 -1.0000
# 1 vertex normals

vt 0.5000 1.0000 0.0000
vt 0.0000 1.0000 0.0000
vt 0.0000 0.0000 0.0000
vt 0.5000 0.0000 0.0000
# 4 texture coords

g Collision1BoardClosetSouth
usemtl wall_board
f 21/21/5 22/22/5 23/23/5 
f 23/23/5 24/24/5 21/21/5 
# 2 faces

#
# object Collision1BoardClosetNorth
#

v  -41.4727 0.0097 -17.0578
v  -28.4088 0.0097 -17.0578
v  -28.4088 20.5780 -17.0578
v  -41.4727 20.5780 -17.0578
# 4 vertices

vn 0.0000 0.0000 1.0000
# 1 vertex normals

vt 0.0000 0.0000 0.0000
vt 0.5000 0.0000 0.0000
vt 0.5000 1.0000 0.0000
vt 0.0000 1.0000 0.0000
# 4 texture coords

g Collision1BoardClosetNorth
usemtl wall_board
f 25/25/6 26/26/6 27/27/6 
f 27/27/6 28/28/6 25/25/6 
# 2 faces

#
# object Collision1BoardNorth
#

v  29.3204 20.5780 -28.6011
v  -29.8658 20.5780 -28.6011
v  -29.8658 0.0097 -28.6011
v  29.3204 0.0097 -28.6011
# 4 vertices

vn 0.0000 0.0000 1.0000
# 1 vertex normals

vt 3.0000 1.0000 0.0000
vt 0.0000 1.0000 0.0000
vt 0.0000 0.0000 0.0000
vt 3.0000 0.0000 0.0000
# 4 texture coords

g Collision1BoardNorth
usemtl wall_board
f 29/29/7 30/30/7 31/31/7 
f 31/31/7 32/32/7 29/29/7 
# 2 faces

