# 3ds Max Wavefront OBJ Exporter v0.97b - (c)2007 guruware
# File Created: 09.02.2013 23:40:07

mtllib decal_ceiling_minor.mtl

#
# object Decal3SmallCrack
#

v  -25.2817 25.5658 37.8952
v  -21.8119 25.5658 -2.9308
v  -13.4412 25.5658 -2.2194
v  -16.9110 25.5658 38.6066
# 4 vertices

vn 0.0000 -1.0000 -0.0000
# 1 vertex normals

vt -0.0000 0.0000 0.0000
vt 1.0000 0.0000 0.0000
vt 1.0000 1.0000 0.0000
vt 0.0000 1.0000 0.0000
# 4 texture coords

g Decal3SmallCrack
usemtl decal_small_crack
f 1/1/1 2/2/1 3/3/1 
f 3/3/1 4/4/1 1/1/1 
# 2 faces

