# 3ds Max Wavefront OBJ Exporter v0.97b - (c)2007 guruware
# File Created: 09.02.2013 23:39:43

mtllib decal_ceiling_major.mtl

#
# object Decal4SmallCrack
#

v  10.8800 25.5658 11.3001
v  14.3498 25.5658 -29.5259
v  22.7205 25.5658 -28.8145
v  19.2506 25.5658 12.0115
# 4 vertices

vn 0.0000 -1.0000 -0.0000
# 1 vertex normals

vt 1.0000 1.0000 0.0000
vt 0.0000 1.0000 0.0000
vt 0.0000 -0.0000 0.0000
vt 1.0000 0.0000 0.0000
# 4 texture coords

g Decal4SmallCrack
usemtl decal_small_crack
f 1/1/1 2/2/1 3/3/1 
f 3/3/1 4/4/1 1/1/1 
# 2 faces

#
# object Decal4BigCrack
#

v  -29.0381 25.5658 37.2796
v  -24.7597 25.5658 -3.4696
v  -3.8326 25.5658 -1.2724
v  -8.1110 25.5658 39.4768
# 4 vertices

vn 0.0000 -1.0000 -0.0000
# 1 vertex normals

vt 1.0000 1.0000 0.0000
vt 0.0000 1.0000 0.0000
vt 0.0000 -0.0000 0.0000
vt 1.0000 0.0000 0.0000
# 4 texture coords

g Decal4BigCrack
usemtl decal_big_crack
f 5/5/2 6/6/2 7/7/2 
f 7/7/2 8/8/2 5/5/2 
# 2 faces

