# 3ds Max Wavefront OBJ Exporter v0.97b - (c)2007 guruware
# File Created: 23.01.2013 04:48:51

mtllib decal_ceiling_minor.mtl

#
# object Roof2
#

v  10.0646 25.6071 -31.1102
v  -29.9111 25.6095 -31.1102
v  -29.9111 25.6095 -59.9411
v  10.0646 25.6071 -59.9411
# 4 vertices

vn -0.0001 -1.0000 -0.0000
# 1 vertex normals

vt 0.0000 0.0000 0.0000
vt 3.4000 0.0000 0.0000
vt 3.4000 4.0000 0.0000
vt 0.0000 4.0000 0.0000
# 4 texture coords

g Roof2
usemtl wall_plaster
f 1/1/1 2/2/1 3/3/1 
f 3/3/1 4/4/1 1/1/1 
# 2 faces

#
# object Decal3SmallCrack
#

v  -25.2817 25.3454 37.8952
v  -21.8119 25.3454 -2.9308
v  -13.4412 25.3454 -2.2194
v  -16.9110 25.3454 38.6066
# 4 vertices

vn 0.0000 -1.0000 -0.0000
# 1 vertex normals

vt -0.0000 0.0000 0.0000
vt 1.0000 0.0000 0.0000
vt 1.0000 1.0000 0.0000
vt 0.0000 1.0000 0.0000
# 4 texture coords

g Decal3SmallCrack
usemtl decal_small_crack
f 5/5/2 6/6/2 7/7/2 
f 7/7/2 8/8/2 5/5/2 
# 2 faces

