# 3ds Max Wavefront OBJ Exporter v0.97b - (c)2007 guruware
# File Created: 02.02.2013 00:47:18

mtllib door_bathroom_stage1.mtl

#
# object DoorBathroomStage1
#

v  -24.7299 0.1099 -30.0316
v  -24.7299 0.1099 -31.0806
v  -16.1672 0.1099 -31.0806
v  -16.1672 0.1099 -30.0316
v  -24.7299 20.5466 -30.0316
v  -16.1672 20.5466 -30.0316
v  -16.1672 20.5466 -31.0806
v  -24.7299 20.5466 -31.0806
# 8 vertices

vn 0.0000 -1.0000 -0.0000
vn 0.0000 1.0000 -0.0000
vn 0.0000 0.0000 1.0000
vn 1.0000 0.0000 -0.0000
vn 0.0000 0.0000 -1.0000
vn -1.0000 0.0000 -0.0000
# 6 vertex normals

vt 1.0000 0.0000 0.0000
vt 1.0000 1.0000 0.0000
vt 0.0000 1.0000 0.0000
vt 0.0000 0.0000 0.0000
vt 0.1000 0.0000 0.0000
vt 0.1000 1.0000 0.0000
# 6 texture coords

g DoorBathroomStage1
usemtl door_bathroom
f 1/1/1 2/2/1 3/3/1 
f 3/3/1 4/4/1 1/1/1 
f 5/4/2 6/1/2 7/2/2 
f 7/2/2 8/3/2 5/4/2 
f 1/4/3 4/1/3 6/2/3 
f 6/2/3 5/3/3 1/4/3 
f 4/4/4 3/5/4 7/6/4 
f 7/6/4 6/3/4 4/4/4 
f 3/1/5 2/4/5 8/3/5 
f 8/3/5 7/2/5 3/1/5 
f 2/4/6 1/5/6 5/6/6 
f 5/6/6 8/3/6 2/4/6 
# 12 faces

