# 3ds Max Wavefront OBJ Exporter v0.97b - (c)2007 guruware
# File Created: 20.01.2013 03:20:47

mtllib room_empty.mtl

#
# object WallSouth
#

v  -30.0000 0.0207 37.9164
v  -30.0000 25.6082 37.9164
v  30.0000 25.6082 37.9164
v  30.0000 0.0207 37.9164
# 4 vertices

vn 0.0000 0.0000 -1.0000
# 1 vertex normals

vt 0.0000 0.0000 0.0000
vt 0.0000 2.0000 0.0000
vt 3.0000 2.0000 0.0000
vt 3.0000 0.0000 0.0000
# 4 texture coords

g WallSouth
usemtl wall_plaster
f 1/1/1 2/2/1 3/3/1 
f 3/3/1 4/4/1 1/1/1 
# 2 faces

#
# object WallNorth
#

v  -16.0447 20.0069 -29.0894
v  -16.0447 0.0207 -29.0894
v  30.0000 0.0207 -29.0894
v  30.0000 25.6082 -29.0894
v  -30.0000 25.6082 -29.0894
v  -24.8525 20.0069 -29.0894
v  -30.0000 0.0207 -29.0894
v  -24.8525 0.0207 -29.0894
v  -24.8525 0.0207 -31.1104
v  -24.8525 20.0069 -31.1104
v  -16.0447 20.0069 -31.1104
v  -16.0447 0.0207 -31.1104
# 12 vertices

vn -0.0000 -0.0000 1.0000
vn 0.0000 -0.0000 1.0000
vn 1.0000 0.0000 -0.0000
vn 1.0000 0.0000 0.0000
vn -0.0000 -1.0000 0.0000
vn 0.0000 -1.0000 0.0000
vn -1.0000 0.0000 -0.0000
vn -1.0000 0.0000 0.0000
# 8 vertex normals

vt 2.3022 1.5622 0.0000
vt 2.3022 0.0000 0.0000
vt 0.0000 0.0000 0.0000
vt 0.0000 2.0000 0.0000
vt 3.0000 2.0000 0.0000
vt 2.7426 1.5622 0.0000
vt 3.0000 0.0000 0.0000
vt 2.7426 0.0000 0.0000
vt 1.7335 0.4614 0.0000
vt 1.4499 0.4614 0.0000
vt 1.4499 2.0000 0.0000
vt 1.7335 2.0000 0.0000
vt 0.0000 0.8443 0.0000
vt 0.0000 1.0334 0.0000
vt 3.0000 1.0334 0.0000
vt 3.0000 0.8443 0.0000
vt 1.2665 0.4614 0.0000
vt 1.2665 2.0000 0.0000
vt 1.5501 2.0000 0.0000
vt 1.5501 0.4614 0.0000
# 20 texture coords

g WallNorth
usemtl wall_plaster
f 5/5/2 6/6/3 7/7/2 
f 5/5/2 7/7/2 8/8/2 
f 5/5/2 8/8/2 9/9/3 
f 10/10/3 5/5/2 9/9/3 
f 10/10/3 9/9/3 11/11/3 
f 10/10/3 11/11/3 12/12/3 
f 12/13/4 13/14/5 14/15/4 
f 14/15/4 10/16/4 12/13/4 
f 10/17/6 14/18/6 15/19/6 
f 15/19/6 5/20/7 10/17/6 
f 6/21/8 5/22/8 15/23/8 
f 15/23/8 16/24/9 6/21/8 
# 12 faces

#
# object BathWallNorth
#

v  -30.4896 0.0207 -57.9079
v  10.0051 0.0207 -57.9079
v  10.0051 25.6082 -57.9079
v  -30.4896 25.6082 -57.9079
# 4 vertices

vn 0.0000 -0.0000 1.0000
# 1 vertex normals

vt 0.0000 0.0000 0.0000
vt 4.5000 0.0000 0.0000
vt 4.5000 4.0000 0.0000
vt 0.0000 4.0000 0.0000
# 4 texture coords

g BathWallNorth
usemtl bathroom_wall_tile
f 17/25/10 18/26/10 19/27/10 
f 19/27/10 20/28/10 17/25/10 
# 2 faces

#
# object WallEast
#

v  29.0794 0.0207 -31.0830
v  29.0794 0.0207 39.9751
v  29.0794 25.6082 39.9751
v  29.0794 25.6082 -31.0830
# 4 vertices

vn -1.0000 -0.0000 -0.0000
# 1 vertex normals

vt 3.5000 0.0000 0.0000
vt 0.0000 0.0000 0.0000
vt 0.0000 1.9800 0.0000
vt 3.5000 1.9800 0.0000
# 4 texture coords

g WallEast
usemtl wall_plaster
f 21/29/11 22/30/11 23/31/11 
f 23/31/11 24/32/11 21/29/11 
# 2 faces

#
# object WallClosetNorth
#

v  -43.7657 0.0207 -18.9488
v  -30.0780 0.0207 -18.9488
v  -30.0780 25.6082 -18.9488
v  -43.7657 25.6082 -18.9488
# 4 vertices

vn 0.0000 -0.0000 1.0000
# 1 vertex normals

vt 0.5000 0.0000 0.0000
vt 0.0000 0.0000 0.0000
vt 0.0000 2.0000 0.0000
vt 0.5000 2.0000 0.0000
# 4 texture coords

g WallClosetNorth
usemtl wall_plaster
f 25/33/12 26/34/12 27/35/12 
f 27/35/12 28/36/12 25/33/12 
# 2 faces

#
# object WallClosetSouth
#

v  -43.7657 0.0207 8.9934
v  -43.7657 25.6082 8.9934
v  -30.0780 25.6082 8.9934
v  -30.0780 0.0207 8.9934
# 4 vertices

vn 0.0000 0.0000 -1.0000
# 1 vertex normals

vt 0.0000 0.0000 0.0000
vt 0.0000 2.0000 0.0000
vt 0.5000 2.0000 0.0000
vt 0.5000 0.0000 0.0000
# 4 texture coords

g WallClosetSouth
usemtl wall_plaster
f 29/37/13 30/38/13 31/39/13 
f 31/39/13 32/40/13 29/37/13 
# 2 faces

#
# object BathWallEast
#

v  8.3939 25.6082 -30.3563
v  8.3939 25.6082 -59.9304
v  8.3939 0.0207 -59.9304
v  8.3939 0.0207 -30.3563
# 4 vertices

vn -1.0000 -0.0000 -0.0000
# 1 vertex normals

vt 3.5000 4.0000 0.0000
vt 0.0000 4.0000 0.0000
vt 0.0000 0.0000 0.0000
vt 3.5000 0.0000 0.0000
# 4 texture coords

g BathWallEast
usemtl bathroom_wall_tile
f 33/41/14 34/42/14 35/43/14 
f 35/43/14 36/44/14 33/41/14 
# 2 faces

#
# object BathWallWest
#

v  -28.8736 25.6082 -30.3563
v  -28.8736 0.0207 -30.3563
v  -28.8736 0.0207 -59.9304
v  -28.8736 25.6082 -59.9304
# 4 vertices

vn 1.0000 0.0000 0.0000
# 1 vertex normals

vt 3.5000 4.0000 0.0000
vt 3.5000 0.0000 0.0000
vt 0.0000 0.0000 0.0000
vt 0.0000 4.0000 0.0000
# 4 texture coords

g BathWallWest
usemtl bathroom_wall_tile
f 37/45/15 38/46/15 39/47/15 
f 39/47/15 40/48/15 37/45/15 
# 2 faces

#
# object BathWallSouth
#

v  -24.8525 20.0069 -31.1104
v  -24.8525 0.0207 -31.1104
v  -30.0000 0.0207 -31.1104
v  -30.0000 25.6082 -31.1104
v  30.0000 0.0207 -31.1104
v  -16.0447 0.0207 -31.1104
v  -16.0447 20.0069 -31.1104
v  30.0000 25.6082 -31.1104
# 8 vertices

vn -0.0000 0.0000 -1.0000
vn 0.0000 -0.0000 -1.0000
vn -0.0000 -0.0000 -1.0000
vn 0.0000 0.0000 -1.0000
# 4 vertex normals

vt 0.6005 3.1244 0.0000
vt 0.6005 0.0000 0.0000
vt 0.0000 0.0000 0.0000
vt 0.0000 4.0000 0.0000
vt 7.0000 0.0000 0.0000
vt 1.6281 0.0000 0.0000
vt 1.6281 3.1244 0.0000
vt 7.0000 4.0000 0.0000
# 8 texture coords

g BathWallSouth
usemtl bathroom_wall_tile
f 41/49/16 42/50/17 43/51/18 
f 41/49/16 43/51/18 44/52/16 
f 45/53/19 46/54/19 47/55/19 
f 48/56/19 45/53/19 47/55/19 
f 44/52/16 48/56/19 47/55/19 
f 41/49/16 44/52/16 47/55/19 
# 6 faces

#
# object Roof1
#

v  31.1068 25.6077 39.5182
v  -43.4481 25.6077 39.5182
v  -43.4481 25.6077 -31.1093
v  31.1068 25.6077 -31.1093
# 4 vertices

vn 0.0000 -1.0000 -0.0000
# 1 vertex normals

vt 0.0000 0.0000 0.0000
vt 3.0000 0.0000 0.0000
vt 3.0000 3.0000 0.0000
vt 0.0000 3.0000 0.0000
# 4 texture coords

g Roof1
usemtl wall_plaster
f 49/57/20 50/58/20 51/59/20 
f 51/59/20 52/60/20 49/57/20 
# 2 faces

#
# object floor2
#

v  -29.9111 0.0206 -31.1102
v  10.0646 0.0206 -31.1102
v  10.0646 0.0206 -59.9411
v  -29.9111 0.0206 -59.9411
# 4 vertices

vn 0.0000 1.0000 -0.0000
# 1 vertex normals

vt 0.0000 0.0000 0.0000
vt 3.4000 0.0000 0.0000
vt 3.4000 4.0000 0.0000
vt 0.0000 4.0000 0.0000
# 4 texture coords

g floor2
usemtl bathroom_floor_tile
f 53/61/21 54/62/21 55/63/21 
f 55/63/21 56/64/21 53/61/21 
# 2 faces

#
# object BoardSouth
#

v  -29.8658 11.8994 37.9175
v  29.3204 11.8994 37.9175
v  29.3204 11.8994 37.4528
v  -29.8658 11.8994 37.4528
v  29.3204 0.0206 37.4528
v  -29.8658 0.0206 37.4528
# 6 vertices

vn 0.0000 1.0000 -0.0000
vn 0.0000 0.0000 -1.0000
# 2 vertex normals

vt 0.0000 0.0000 0.0000
vt 3.0000 0.0000 0.0000
vt 3.0000 1.0000 0.0000
vt 0.0000 1.0000 0.0000
# 4 texture coords

g BoardSouth
usemtl wall_board
f 57/65/22 58/66/22 59/67/22 
f 59/67/22 60/68/22 57/65/22 
f 61/65/23 62/66/23 60/67/23 
f 60/67/23 59/68/23 61/65/23 
# 4 faces

#
# object BoardEast
#

v  29.0818 11.8994 37.8444
v  29.0818 11.8994 -30.2107
v  28.6171 11.8994 -30.2107
v  28.6171 11.8994 37.8444
v  28.6171 0.0206 -30.2107
v  28.6171 0.0206 37.8444
# 6 vertices

vn 0.0000 1.0000 -0.0000
vn -1.0000 0.0000 0.0000
# 2 vertex normals

vt 0.0000 0.0000 0.0000
vt 3.5000 0.0000 0.0000
vt 3.5000 1.0000 0.0000
vt 0.0000 1.0000 0.0000
# 4 texture coords

g BoardEast
usemtl wall_board
f 63/69/24 64/70/24 65/71/24 
f 65/71/24 66/72/24 63/69/24 
f 67/69/25 68/70/25 66/71/25 
f 66/71/25 65/72/25 67/69/25 
# 4 faces

#
# object BoardNorth
#

v  -16.0443 11.8994 -29.0904
v  -16.0443 11.8994 -28.6257
v  29.3204 11.8994 -28.6257
v  29.3204 11.8994 -29.0904
v  -29.8658 11.8994 -28.6257
v  -29.8658 0.0206 -28.6257
v  -24.8501 0.0206 -28.6257
v  -24.8501 11.8994 -28.6257
v  -24.8501 11.8994 -29.0904
v  -29.8658 11.8994 -29.0904
v  -16.0443 0.0206 -28.6257
v  29.3204 0.0206 -28.6257
v  -24.8501 0.0206 -29.0904
v  -16.0443 0.0206 -29.0904
# 14 vertices

vn -0.0000 1.0000 0.0000
vn 0.0000 1.0000 -0.0000
vn 0.0000 0.0000 1.0000
vn 0.0000 1.0000 0.0000
vn 1.0000 0.0000 -0.0000
vn -1.0000 0.0000 -0.0000
# 6 vertex normals

vt 0.7006 1.0000 0.0000
vt 0.7006 0.0000 0.0000
vt 3.0000 0.0000 0.0000
vt 3.0000 1.0000 0.0000
vt 0.0000 1.0000 0.0000
vt 0.0000 0.0000 0.0000
vt 0.2542 0.0000 0.0000
vt 0.2542 1.0000 0.0000
vt 2.6709 0.7606 0.0000
vt 2.6709 0.0781 0.0000
vt 2.2970 0.0781 0.0000
vt 2.2970 0.7606 0.0000
vt 0.7030 0.7606 0.0000
vt 0.7030 0.0781 0.0000
vt 0.3291 0.0781 0.0000
vt 0.3291 0.7606 0.0000
# 16 texture coords

g BoardNorth
usemtl wall_board
f 69/73/26 70/74/26 71/75/26 
f 71/75/26 72/76/27 69/73/26 
f 73/77/28 74/78/28 75/79/28 
f 75/79/28 76/80/28 73/77/28 
f 76/79/29 77/80/29 78/77/29 
f 78/77/29 73/78/27 76/79/29 
f 71/76/28 70/73/28 79/74/28 
f 79/74/28 80/75/28 71/76/28 
f 76/81/30 75/82/30 81/83/30 
f 81/83/30 77/84/30 76/81/30 
f 69/85/31 82/86/31 79/87/31 
f 79/87/31 70/88/31 69/85/31 
# 12 faces

#
# object BoardEast001
#

v  -28.8724 11.8994 37.8444
v  -28.4077 11.8994 37.8444
v  -28.4077 11.8994 7.0615
v  -28.8724 11.8994 7.0615
v  -28.4077 0.0206 37.8444
v  -28.4077 0.0206 7.0615
v  -28.4077 11.8994 -17.0562
v  -28.4077 0.0206 -17.0562
v  -28.4077 0.0206 -30.2107
v  -28.4077 11.8994 -30.2107
v  -28.8724 11.8994 -30.2107
v  -28.8724 11.8994 -17.0562
v  -28.8724 0.0206 7.0615
v  -28.8724 0.0206 -17.0562
# 14 vertices

vn 0.0000 1.0000 -0.0000
vn 1.0000 0.0000 -0.0000
vn 0.0000 1.0000 0.0000
vn -0.0000 0.0000 -1.0000
vn 0.0000 0.0000 1.0000
# 5 vertex normals

vt 0.0000 1.0000 0.0000
vt 0.0000 0.0000 0.0000
vt 1.5831 0.0000 0.0000
vt 1.5831 1.0000 0.0000
vt 2.8235 1.0000 0.0000
vt 2.8235 0.0000 0.0000
vt 3.5000 0.0000 0.0000
vt 3.5000 1.0000 0.0000
vt 2.1322 0.7606 0.0000
vt 2.1322 0.0781 0.0000
vt 1.7187 0.0781 0.0000
vt 1.7187 0.7606 0.0000
vt 1.7813 0.7606 0.0000
vt 1.7813 0.0781 0.0000
vt 1.3678 0.0781 0.0000
vt 1.3678 0.7606 0.0000
# 16 texture coords

g BoardEast001
usemtl wall_board
f 83/89/32 84/90/32 85/91/32 
f 85/91/32 86/92/32 83/89/32 
f 84/89/33 87/90/33 88/91/33 
f 88/91/33 85/92/33 84/89/33 
f 89/93/33 90/94/33 91/95/33 
f 91/95/33 92/96/33 89/93/33 
f 93/96/34 94/93/34 89/94/34 
f 89/94/34 92/95/34 93/96/34 
f 85/97/35 88/98/35 95/99/35 
f 95/99/35 86/100/35 85/97/35 
f 94/101/36 96/102/36 90/103/36 
f 90/103/36 89/104/36 94/101/36 
# 12 faces

#
# object BoardClosetWest
#

v  -41.3531 0.0206 9.3282
v  -41.8178 0.0206 9.3282
v  -41.8178 0.0206 -19.2009
v  -41.3531 0.0206 -19.2009
v  -41.3531 11.8994 9.3282
v  -41.3531 11.8994 -19.2009
v  -41.8178 11.8994 -19.2009
v  -41.8178 11.8994 9.3282
# 8 vertices

vn 0.0000 -1.0000 -0.0000
vn 0.0000 1.0000 -0.0000
vn 1.0000 0.0000 -0.0000
vn -0.0000 0.0000 -1.0000
vn -1.0000 0.0000 0.0000
vn 0.0000 0.0000 1.0000
# 6 vertex normals

vt 1.5000 0.0000 0.0000
vt 1.5000 1.0000 0.0000
vt 0.0000 1.0000 0.0000
vt 0.0000 0.0000 0.0000
# 4 texture coords

g BoardClosetWest
usemtl wall_board
f 97/105/37 98/106/37 99/107/37 
f 99/107/37 100/108/37 97/105/37 
f 101/108/38 102/105/38 103/106/38 
f 103/106/38 104/107/38 101/108/38 
f 97/108/39 100/105/39 102/106/39 
f 102/106/39 101/107/39 97/108/39 
f 100/108/40 99/105/40 103/106/40 
f 103/106/40 102/107/40 100/108/40 
f 99/108/41 98/105/41 104/106/41 
f 104/106/41 103/107/41 99/108/41 
f 98/108/42 97/105/42 101/106/42 
f 101/106/42 104/107/42 98/108/42 
# 12 faces

#
# object BoardClosetSouth
#

v  -41.8738 0.0206 8.9934
v  -41.8738 0.0206 8.5287
v  -30.6399 0.0206 8.5287
v  -30.6399 0.0206 8.9934
v  -41.8738 11.8994 8.9934
v  -30.6399 11.8994 8.9934
v  -30.6399 11.8994 8.5287
v  -41.8738 11.8994 8.5287
# 8 vertices

vn 0.0000 -1.0000 -0.0000
vn 0.0000 1.0000 -0.0000
vn 0.0000 0.0000 1.0000
vn 1.0000 0.0000 -0.0000
vn 0.0000 0.0000 -1.0000
vn -1.0000 0.0000 -0.0000
# 6 vertex normals

vt 0.5000 0.0000 0.0000
vt 0.5000 1.0000 0.0000
vt 0.0000 1.0000 0.0000
vt 0.0000 0.0000 0.0000
# 4 texture coords

g BoardClosetSouth
usemtl wall_board
f 105/109/43 106/110/43 107/111/43 
f 107/111/43 108/112/43 105/109/43 
f 109/112/44 110/109/44 111/110/44 
f 111/110/44 112/111/44 109/112/44 
f 105/112/45 108/109/45 110/110/45 
f 110/110/45 109/111/45 105/112/45 
f 108/112/46 107/109/46 111/110/46 
f 111/110/46 110/111/46 108/112/46 
f 107/112/47 106/109/47 112/110/47 
f 112/110/47 111/111/47 107/112/47 
f 106/112/48 105/109/48 109/110/48 
f 109/110/48 112/111/48 106/112/48 
# 12 faces

#
# object BoardClosetNorth
#

v  -41.8738 0.0206 -18.4821
v  -41.8738 0.0206 -18.9468
v  -30.6399 0.0206 -18.9468
v  -30.6399 0.0206 -18.4821
v  -41.8738 11.8994 -18.4821
v  -30.6399 11.8994 -18.4821
v  -30.6399 11.8994 -18.9468
v  -41.8738 11.8994 -18.9468
# 8 vertices

vn 0.0000 -1.0000 -0.0000
vn 0.0000 1.0000 -0.0000
vn 0.0000 0.0000 1.0000
vn 1.0000 0.0000 -0.0000
vn 0.0000 0.0000 -1.0000
vn -1.0000 0.0000 -0.0000
# 6 vertex normals

vt 0.5000 0.0000 0.0000
vt 0.5000 1.0000 0.0000
vt 0.0000 1.0000 0.0000
vt 0.0000 0.0000 0.0000
# 4 texture coords

g BoardClosetNorth
usemtl wall_board
f 113/113/49 114/114/49 115/115/49 
f 115/115/49 116/116/49 113/113/49 
f 117/116/50 118/113/50 119/114/50 
f 119/114/50 120/115/50 117/116/50 
f 113/116/51 116/113/51 118/114/51 
f 118/114/51 117/115/51 113/116/51 
f 116/116/52 115/113/52 119/114/52 
f 119/114/52 118/115/52 116/116/52 
f 115/116/53 114/113/53 120/114/53 
f 120/114/53 119/115/53 115/116/53 
f 114/116/54 113/113/54 117/114/54 
f 117/114/54 120/115/54 114/116/54 
# 12 faces

#
# object Roof2
#

v  10.0646 25.6071 -31.1102
v  -29.9111 25.6095 -31.1102
v  -29.9111 25.6095 -59.9411
v  10.0646 25.6071 -59.9411
# 4 vertices

vn -0.0001 -1.0000 -0.0000
# 1 vertex normals

vt 0.0000 0.0000 0.0000
vt 3.4000 0.0000 0.0000
vt 3.4000 4.0000 0.0000
vt 0.0000 4.0000 0.0000
# 4 texture coords

g Roof2
usemtl wall_plaster
f 121/117/55 122/118/55 123/119/55 
f 123/119/55 124/120/55 121/117/55 
# 2 faces

#
# object floor1
#

v  -43.4481 0.0204 39.5182
v  31.1068 0.0204 39.5182
v  31.1068 0.0204 -31.1093
v  -43.4481 0.0204 -31.1093
# 4 vertices

vn 0.0000 1.0000 -0.0000
# 1 vertex normals

vt 0.0000 0.0000 0.0000
vt 3.0000 0.0000 0.0000
vt 3.0000 3.0000 0.0000
vt 0.0000 3.0000 0.0000
# 4 texture coords

g floor1
usemtl floor_hardwood
f 125/121/56 126/122/56 127/123/56 
f 127/123/56 128/124/56 125/121/56 
# 2 faces

#
# object WallWest
#

v  -30.8951 20.0069 -17.0515
v  -30.8951 21.7686 -30.5455
v  -30.8951 0.0207 -30.5455
v  -30.8951 0.0207 -17.0515
v  -28.8740 20.0069 7.0608
v  -28.8740 25.6082 40.0223
v  -28.8740 0.0207 40.0223
v  -28.8740 0.0207 7.0608
v  -28.8740 0.0207 -17.0515
v  -28.8740 20.0069 -17.0515
v  -30.8951 20.0069 7.0608
v  -30.8951 0.0207 7.0608
v  -30.8951 25.6082 40.0223
v  -30.8951 25.6082 -30.5455
v  -30.8951 0.0207 40.0223
v  -28.8740 21.7686 -30.5455
v  -28.8740 25.6082 -30.5455
v  -28.8740 0.0207 -30.5455
# 18 vertices

vn -1.0000 -0.0000 -0.0000
vn -1.0000 0.0000 -0.0000
vn 1.0000 0.0000 0.0000
vn 0.0000 -0.0000 1.0000
vn 0.0000 -1.0000 -0.0000
vn 0.0000 0.0000 -1.0000
# 6 vertex normals

vt 1.9981 1.5622 0.0000
vt 2.4705 1.6999 0.0000
vt 2.4705 0.0000 0.0000
vt 1.9981 0.0000 0.0000
vt 2.3461 1.5622 0.0000
vt 3.5000 2.0000 0.0000
vt 3.5000 0.0000 0.0000
vt 2.3461 0.0000 0.0000
vt 2.3265 0.4614 0.0000
vt 1.7187 0.4614 0.0000
vt 1.7187 2.0000 0.0000
vt 2.3265 2.0000 0.0000
vt 1.1735 2.0000 0.0000
vt 1.7813 2.0000 0.0000
vt 1.7813 0.0000 0.0000
vt 1.1735 0.0000 0.0000
vt 1.1735 0.4614 0.0000
vt 1.7813 0.4614 0.0000
vt 1.1539 1.5622 0.0000
vt 0.0000 2.0000 0.0000
vt 2.4705 2.0000 0.0000
vt 0.0000 0.0000 0.0000
vt 1.1539 0.0000 0.0000
vt 1.5019 1.5622 0.0000
vt 1.0295 1.6999 0.0000
vt 1.0295 2.0000 0.0000
vt 1.5019 0.0000 0.0000
vt 1.0295 0.0000 0.0000
# 28 texture coords

g WallWest
usemtl wall_plaster
f 129/125/57 130/126/57 131/127/58 
f 131/127/58 132/128/58 129/125/57 
f 133/129/59 134/130/59 135/131/59 
f 135/131/59 136/132/59 133/129/59 
f 132/133/60 137/134/60 138/135/60 
f 138/135/60 129/136/60 132/133/60 
f 129/137/61 138/138/61 133/139/61 
f 133/139/61 139/140/61 129/137/61 
f 140/141/62 139/137/62 133/138/62 
f 133/138/62 136/142/62 140/141/62 
f 129/125/57 139/143/58 141/144/57 
f 129/125/57 141/144/57 142/145/57 
f 129/125/57 142/145/57 130/126/57 
f 143/146/57 141/144/57 139/143/58 
f 139/143/58 140/147/57 143/146/57 
f 138/148/59 144/149/59 145/150/59 
f 138/148/59 145/150/59 134/130/59 
f 138/148/59 134/130/59 133/129/59 
f 144/149/59 138/148/59 137/151/59 
f 137/151/59 146/152/59 144/149/59 
# 20 faces

#
# object WallClosetWest
#

v  -41.8180 0.0207 -19.9424
v  -41.8180 25.6082 -19.9424
v  -41.8180 25.6082 9.6317
v  -41.8180 0.0207 9.6317
# 4 vertices

vn 1.0000 0.0000 0.0000
# 1 vertex normals

vt 0.0000 0.0000 0.0000
vt 0.0000 2.0200 0.0000
vt 1.5000 2.0200 0.0000
vt 1.5000 0.0000 0.0000
# 4 texture coords

g WallClosetWest
usemtl wall_plaster
f 147/153/63 148/154/63 149/155/63 
f 149/155/63 150/156/63 147/153/63 
# 2 faces

