# 3ds Max Wavefront OBJ Exporter v0.97b - (c)2007 guruware
# File Created: 22.01.2013 20:31:13

mtllib room_collision_test.mtl

#
# object WallSouth
#

v  -30.0000 0.0207 30.4650
v  -30.0000 25.6082 30.4650
v  30.0000 25.6082 30.4650
v  30.0000 0.0207 30.4650
# 4 vertices

vn 0.0000 0.0000 -1.0000
# 1 vertex normals

vt 0.0000 0.0000 0.0000
vt 0.0000 2.0000 0.0000
vt 3.0000 2.0000 0.0000
vt 3.0000 0.0000 0.0000
# 4 texture coords

g WallSouth
usemtl wall_plaster
f 1/1/1 2/2/1 3/3/1 
f 3/3/1 4/4/1 1/1/1 
# 2 faces

#
# object BoardSouth
#

v  -29.8658 11.8994 30.4662
v  29.3204 11.8994 30.4662
v  29.3204 11.8994 30.0014
v  -29.8658 11.8994 30.0014
v  29.3204 0.0206 30.0014
v  -29.8658 0.0206 30.0014
# 6 vertices

vn 0.0000 1.0000 -0.0000
vn 0.0000 0.0000 -1.0000
# 2 vertex normals

vt 0.0000 0.0000 0.0000
vt 3.0000 0.0000 0.0000
vt 3.0000 1.0000 0.0000
vt 0.0000 1.0000 0.0000
# 4 texture coords

g BoardSouth
usemtl wall_board
f 5/5/2 6/6/2 7/7/2 
f 7/7/2 8/8/2 5/5/2 
f 9/5/3 10/6/3 8/7/3 
f 8/7/3 7/8/3 9/5/3 
# 4 faces

#
# object floor1
#

v  -43.4481 0.0204 39.5182
v  31.1068 0.0204 39.5182
v  31.1068 0.0204 -31.1093
v  -43.4481 0.0204 -31.1093
# 4 vertices

vn 0.0000 1.0000 -0.0000
# 1 vertex normals

vt 0.0000 0.0000 0.0000
vt 3.0000 0.0000 0.0000
vt 3.0000 3.0000 0.0000
vt 0.0000 3.0000 0.0000
# 4 texture coords

g floor1
usemtl floor_hardwood
f 11/9/4 12/10/4 13/11/4 
f 13/11/4 14/12/4 11/9/4 
# 2 faces

#
# object BoardSouth001
#

v  29.5931 11.8994 -30.4623
v  -29.5931 11.8994 -30.4623
v  -29.5931 11.8994 -29.9976
v  29.5931 11.8994 -29.9976
v  -29.5931 0.0206 -29.9976
v  29.5931 0.0206 -29.9976
# 6 vertices

vn 0.0000 1.0000 -0.0000
vn 0.0000 0.0000 1.0000
# 2 vertex normals

vt 0.0000 0.0000 0.0000
vt 3.0000 0.0000 0.0000
vt 3.0000 1.0000 0.0000
vt 0.0000 1.0000 0.0000
# 4 texture coords

g BoardSouth001
usemtl wall_board
f 15/13/5 16/14/5 17/15/5 
f 17/15/5 18/16/5 15/13/5 
f 19/13/6 20/14/6 18/15/6 
f 18/15/6 17/16/6 19/13/6 
# 4 faces

#
# object WallSouth001
#

v  29.7273 0.0207 -30.4612
v  29.7273 25.6082 -30.4612
v  -30.2727 25.6082 -30.4612
v  -30.2727 0.0207 -30.4612
# 4 vertices

vn 0.0000 0.0000 1.0000
# 1 vertex normals

vt 0.0000 0.0000 0.0000
vt 0.0000 2.0000 0.0000
vt 3.0000 2.0000 0.0000
vt 3.0000 0.0000 0.0000
# 4 texture coords

g WallSouth001
usemtl wall_plaster
f 21/17/7 22/18/7 23/19/7 
f 23/19/7 24/20/7 21/17/7 
# 2 faces

#
# object BoardSouth002
#

v  30.4677 11.8994 29.8558
v  30.4677 11.8994 -29.3305
v  30.0029 11.8994 -29.3305
v  30.0029 11.8994 29.8558
v  30.0029 0.0206 -29.3305
v  30.0029 0.0206 29.8558
# 6 vertices

vn 0.0000 1.0000 -0.0000
vn -1.0000 0.0000 -0.0000
# 2 vertex normals

vt 0.0000 0.0000 0.0000
vt 3.0000 0.0000 0.0000
vt 3.0000 1.0000 0.0000
vt 0.0000 1.0000 0.0000
# 4 texture coords

g BoardSouth002
usemtl wall_board
f 25/21/8 26/22/8 27/23/8 
f 27/23/8 28/24/8 25/21/8 
f 29/21/9 30/22/9 28/23/9 
f 28/23/9 27/24/9 29/21/9 
# 4 faces

#
# object WallSouth002
#

v  30.4665 0.0207 29.9900
v  30.4666 25.6082 29.9900
v  30.4666 25.6082 -30.0100
v  30.4666 0.0207 -30.0100
# 4 vertices

vn -1.0000 0.0000 -0.0000
# 1 vertex normals

vt 0.0000 0.0000 0.0000
vt 0.0000 2.0000 0.0000
vt 3.0000 2.0000 0.0000
vt 3.0000 0.0000 0.0000
# 4 texture coords

g WallSouth002
usemtl wall_plaster
f 31/25/10 32/26/10 33/27/10 
f 33/27/10 34/28/10 31/25/10 
# 2 faces

#
# object WallSouth003
#

v  -30.4662 0.0207 -29.7373
v  -30.4662 25.6082 -29.7373
v  -30.4662 25.6082 30.2627
v  -30.4662 0.0207 30.2627
# 4 vertices

vn 1.0000 0.0000 -0.0000
# 1 vertex normals

vt 0.0000 0.0000 0.0000
vt 0.0000 2.0000 0.0000
vt 3.0000 2.0000 0.0000
vt 3.0000 0.0000 0.0000
# 4 texture coords

g WallSouth003
usemtl wall_plaster
f 35/29/11 36/30/11 37/31/11 
f 37/31/11 38/32/11 35/29/11 
# 2 faces

#
# object BoardSouth003
#

v  -30.4673 11.8994 -29.6031
v  -30.4673 11.8994 29.5831
v  -30.0026 11.8994 29.5831
v  -30.0026 11.8994 -29.6031
v  -30.0026 0.0206 29.5831
v  -30.0026 0.0206 -29.6031
# 6 vertices

vn 0.0000 1.0000 -0.0000
vn 1.0000 0.0000 0.0000
# 2 vertex normals

vt 0.0000 0.0000 0.0000
vt 3.0000 0.0000 0.0000
vt 3.0000 1.0000 0.0000
vt 0.0000 1.0000 0.0000
# 4 texture coords

g BoardSouth003
usemtl wall_board
f 39/33/12 40/34/12 41/35/12 
f 41/35/12 42/36/12 39/33/12 
f 43/33/13 44/34/13 42/35/13 
f 42/35/13 41/36/13 43/33/13 
# 4 faces

