# 3ds Max Wavefront OBJ Exporter v0.97b - (c)2007 guruware
# File Created: 29.01.2013 21:20:31

mtllib stage2.mtl

#
# object Collision2BathWallNorth001
#

v  -30.4896 0.0207 -54.4895
v  10.0051 0.0207 -54.4895
v  10.0051 25.6082 -54.4895
v  -30.4896 25.6082 -54.4895
# 4 vertices

vn 0.0000 -0.0000 1.0000
# 1 vertex normals

vt 0.0000 0.0000 0.0000
vt 4.5000 0.0000 0.0000
vt 4.5000 4.0000 0.0000
vt 0.0000 4.0000 0.0000
# 4 texture coords

g Collision2BathWallNorth001
usemtl bathroom_wall_tile
f 1/1/1 2/2/1 3/3/1 
f 3/3/1 4/4/1 1/1/1 
# 2 faces

#
# object Collision2BathWallEast001
#

v  4.9087 25.6082 -30.3563
v  4.9087 25.6082 -59.9304
v  4.9087 0.0207 -59.9304
v  4.9087 0.0207 -30.3563
# 4 vertices

vn -1.0000 -0.0000 -0.0000
# 1 vertex normals

vt 3.5000 4.0000 0.0000
vt 0.0000 4.0000 0.0000
vt 0.0000 0.0000 0.0000
vt 3.5000 0.0000 0.0000
# 4 texture coords

g Collision2BathWallEast001
usemtl bathroom_wall_tile
f 5/5/2 6/6/2 7/7/2 
f 7/7/2 8/8/2 5/5/2 
# 2 faces

#
# object Collision2BathWallWest001
#

v  -25.3625 25.6082 -30.3563
v  -25.3625 0.0207 -30.3563
v  -25.3625 0.0207 -59.9304
v  -25.3625 25.6082 -59.9304
# 4 vertices

vn 1.0000 0.0000 0.0000
# 1 vertex normals

vt 3.5000 4.0000 0.0000
vt 3.5000 0.0000 0.0000
vt 0.0000 0.0000 0.0000
vt 0.0000 4.0000 0.0000
# 4 texture coords

g Collision2BathWallWest001
usemtl bathroom_wall_tile
f 9/9/3 10/10/3 11/11/3 
f 11/11/3 12/12/3 9/9/3 
# 2 faces

#
# object Collision2BathWallSouth001
#

v  -23.5803 20.0069 -34.2034
v  -23.5803 0.0207 -34.2034
v  -30.0000 0.0207 -34.2034
v  -30.0000 25.6082 -34.2034
v  30.0000 0.0207 -34.2034
v  -17.2287 0.0207 -34.2034
v  -17.2287 20.0069 -34.2034
v  30.0000 25.6082 -34.2034
# 8 vertices

vn 0.0000 0.0000 -1.0000
vn 0.0000 -0.0000 -1.0000
vn -0.0000 0.0000 -1.0000
vn -0.0000 -0.0000 -1.0000
# 4 vertex normals

vt 0.6005 3.1244 0.0000
vt 0.6005 0.0000 0.0000
vt 0.0000 0.0000 0.0000
vt 0.0000 4.0000 0.0000
vt 7.0000 0.0000 0.0000
vt 1.6281 0.0000 0.0000
vt 1.6281 3.1244 0.0000
vt 7.0000 4.0000 0.0000
# 8 texture coords

g Collision2BathWallSouth001
usemtl bathroom_wall_tile
f 13/13/4 14/14/5 15/15/5 
f 13/13/4 15/15/5 16/16/6 
f 17/17/6 18/18/7 19/19/4 
f 20/20/4 17/17/6 19/19/4 
f 16/16/6 20/20/4 19/19/4 
f 13/13/4 16/16/6 19/19/4 
# 6 faces

#
# object Collision1WallEast001
#

v  25.1183 0.0207 -31.0830
v  25.1183 0.0207 39.9751
v  25.1183 25.6082 39.9751
v  25.1183 25.6082 -31.0830
# 4 vertices

vn -1.0000 -0.0000 -0.0000
# 1 vertex normals

vt 3.5000 0.0000 0.0000
vt 0.0000 0.0000 0.0000
vt 0.0000 1.9800 0.0000
vt 3.5000 1.9800 0.0000
# 4 texture coords

g Collision1WallEast001
usemtl wall_plaster
f 21/21/8 22/22/8 23/23/8 
f 23/23/8 24/24/8 21/21/8 
# 2 faces

#
# object Collision1WallSouth001
#

v  -30.0000 0.0207 34.2457
v  -30.0000 25.6082 34.2457
v  30.0000 25.6082 34.2457
v  30.0000 0.0207 34.2457
# 4 vertices

vn 0.0000 0.0000 -1.0000
# 1 vertex normals

vt 0.0000 0.0000 0.0000
vt 0.0000 2.0000 0.0000
vt 3.0000 2.0000 0.0000
vt 3.0000 0.0000 0.0000
# 4 texture coords

g Collision1WallSouth001
usemtl wall_plaster
f 25/25/9 26/26/9 27/27/9 
f 27/27/9 28/28/9 25/25/9 
# 2 faces

#
# object Collision1WallWest001
#

v  -25.4500 20.0069 5.6479
v  -25.4500 25.6082 40.0223
v  -25.4500 0.0207 40.0223
v  -25.4500 0.0207 5.6479
v  -25.4500 20.0069 -15.5984
v  -25.4500 21.7686 -30.5455
v  -25.4500 25.6082 -30.5455
v  -25.4499 0.0207 -15.5984
v  -25.4499 0.0207 -30.5455
# 9 vertices

vn 1.0000 0.0000 0.0000
vn 1.0000 -0.0000 0.0000
vn 1.0000 0.0000 -0.0000
# 3 vertex normals

vt 2.3461 1.5622 0.0000
vt 3.5000 2.0000 0.0000
vt 3.5000 0.0000 0.0000
vt 2.3461 0.0000 0.0000
vt 1.5019 1.5622 0.0000
vt 1.0295 1.6999 0.0000
vt 1.0295 2.0000 0.0000
vt 1.5019 0.0000 0.0000
vt 1.0295 0.0000 0.0000
# 9 texture coords

g Collision1WallWest001
usemtl wall_plaster
f 29/29/10 30/30/10 31/31/11 
f 31/31/11 32/32/11 29/29/10 
f 33/33/12 34/34/12 35/35/12 
f 33/33/12 35/35/12 30/30/10 
f 33/33/12 30/30/10 29/29/10 
f 34/34/12 33/33/12 36/36/12 
f 36/36/12 37/37/12 34/34/12 
# 7 faces

#
# object Collision1WallClosetSouth001
#

v  -25.4500 25.6082 5.6476
v  -25.4500 0.0207 5.6476
v  -43.7657 0.0207 5.6476
v  -43.7657 25.6082 5.6476
# 4 vertices

vn -0.0000 0.0000 -1.0000
# 1 vertex normals

vt 0.5000 2.0000 0.0000
vt 0.5000 0.0000 0.0000
vt 0.0000 0.0000 0.0000
vt 0.0000 2.0000 0.0000
# 4 texture coords

g Collision1WallClosetSouth001
usemtl wall_plaster
f 38/38/13 39/39/13 40/40/13 
f 40/40/13 41/41/13 38/38/13 
# 2 faces

#
# object Collision1WallClosetWest001
#

v  -39.1122 0.0207 -19.9424
v  -39.1122 25.6082 -19.9424
v  -39.1122 25.6082 9.6317
v  -39.1122 0.0207 9.6317
# 4 vertices

vn 1.0000 0.0000 0.0000
# 1 vertex normals

vt 0.0000 0.0000 0.0000
vt 0.0000 2.0200 0.0000
vt 1.5000 2.0200 0.0000
vt 1.5000 0.0000 0.0000
# 4 texture coords

g Collision1WallClosetWest001
usemtl wall_plaster
f 42/42/14 43/43/14 44/44/14 
f 44/44/14 45/45/14 42/42/14 
# 2 faces

#
# object Collision1WallClosetNorth001
#

v  -25.4500 25.6082 -15.5982
v  -43.7657 25.6082 -15.5982
v  -43.7657 0.0207 -15.5982
v  -25.4500 0.0207 -15.5982
# 4 vertices

vn 0.0000 -0.0000 1.0000
# 1 vertex normals

vt 0.0000 3.0000 0.0000
vt 0.5000 3.0000 0.0000
vt 0.5000 1.0000 0.0000
vt 0.0000 1.0000 0.0000
# 4 texture coords

g Collision1WallClosetNorth001
usemtl wall_plaster
f 46/46/15 47/47/15 48/48/15 
f 48/48/15 49/49/15 46/46/15 
# 2 faces

#
# object Collision2DoorEast
#

v  -17.2289 25.6082 -25.3671
v  -17.2289 25.6082 -34.2033
v  -17.2289 0.0207 -34.2033
v  -17.2289 0.0207 -25.3671
# 4 vertices

vn -1.0000 -0.0000 -0.0000
# 1 vertex normals

vt 3.5000 4.0000 0.0000
vt 0.0000 4.0000 0.0000
vt 0.0000 0.0000 0.0000
vt 3.5000 0.0000 0.0000
# 4 texture coords

g Collision2DoorEast
usemtl bathroom_wall_tile
f 50/50/16 51/51/16 52/52/16 
f 52/52/16 53/53/16 50/50/16 
# 2 faces

#
# object Collision2WallNorth2
#

v  -17.2286 20.0069 -25.3670
v  -17.2286 0.0207 -25.3670
v  29.9974 0.0207 -25.3670
v  29.9974 25.6082 -25.3670
v  -30.0026 0.0207 -25.3670
v  -23.5803 0.0207 -25.3670
v  -23.5803 20.0069 -25.3670
v  -30.0026 25.6082 -25.3670
# 8 vertices

vn -0.0000 -0.0000 1.0000
vn 0.0000 -0.0000 1.0000
# 2 vertex normals

vt 0.6005 3.1244 0.0000
vt 0.6005 0.0000 0.0000
vt 0.0000 0.0000 0.0000
vt 0.0000 4.0000 0.0000
vt 7.0000 0.0000 0.0000
vt 1.6281 0.0000 0.0000
vt 1.6281 3.1244 0.0000
vt 7.0000 4.0000 0.0000
# 8 texture coords

g Collision2WallNorth2
usemtl bathroom_wall_tile
f 54/54/17 55/55/17 56/56/17 
f 54/54/17 56/56/17 57/57/17 
f 58/58/18 59/59/18 60/60/18 
f 61/61/18 58/58/18 60/60/18 
f 57/57/17 61/61/18 60/60/18 
f 54/54/17 57/57/17 60/60/18 
# 6 faces

#
# object Collision2DoorWest
#

v  -23.5802 25.6082 -25.3671
v  -23.5802 0.0207 -25.3671
v  -23.5802 0.0207 -34.2033
v  -23.5802 25.6082 -34.2033
# 4 vertices

vn 1.0000 0.0000 0.0000
# 1 vertex normals

vt 3.5000 4.0000 0.0000
vt 3.5000 0.0000 0.0000
vt 0.0000 0.0000 0.0000
vt 0.0000 4.0000 0.0000
# 4 texture coords

g Collision2DoorWest
usemtl bathroom_wall_tile
f 62/62/19 63/63/19 64/64/19 
f 64/64/19 65/65/19 62/62/19 
# 2 faces

